<svg xmlns="http://www.w3.org/2000/svg" fill="none" viewBox="0 0 391 780" id="LadyWearingBlazer"><path fill="#ffffff" fill-rule="evenodd" d="M270.27 388.609c6.255.14 3.573-58.218-.604-68.972-.585-2.179-1.068-5.157-.97-7.832 5.165.517 4.609-3.019 4.342-7.282.088-3.386.323-10.371-4.858-7.651-15.533-31.098 1.262-111.487-39.636-119.059-4.929-1.197-10.022-2.435-14.171-5.852-4.391-8.116-6.627-9.153-13.902-9.678-1.347-7.31-3.865-15.12-11.369-17.964-6.871-2.693-14.867-2.907-22.031-1.471-5.929 1.934-6.471 12.956-7.789 18.39-7.986-2.118-17.828-6.572-22.127 3.525-2.082-.622-4.012-.218-6.128.474-17.736 2.858-34.943 10.881-41.521 27.622-4.063 10.046-1.18 20.982.344 31.387 1.421 11.329-2.326 21.825-4.063 32.723-2.587 15.006-3.055 27.042-1.367 38.196-4.462 1.015-4.79 5.073-2.986 9.319.53 1.437 1.065 2.952 2.237 3.765 2.384 1.501 5.466-.229 8.057-.494.539 5.993 1.583 11.872 3.31 18.555-.5 2-1.074 4.234-1.59 6.243l-.173-.189c-5.916 24.78-23.51 48.85-18.042 75.186.321.877.931.695 1.4.679 2.715 1.033 5.208.377 7.946.483 6.493.004 12.766.836 18.585 1.56 1.064 6.949 4.522 18.326 10.69 20.976.104.035 1.932-.346 2.085-.357-16.42 66.576-45.961 128.138-57.696 196.056-.07.829 1.279.39 1.721.491-.06 1.884 1.157 2.338 2.862 3.008-2.197 4.593-4.176 9.181-6.364 13.786-1.014 2.28-2.667 4.532-2.968 6.969-2.422 1.547-4.053 4.572-4.01 7.396-6.53 2.76-4.755 16.392-6.244 23.145-1.507 10.058-8.672 17.083-13.585 25.33-1.001 1.656-2.068 3.825-2.115 5.904-3.046 1.428-4.181 4.547-3.98 9.797-.01 6.143 1.722 8.482 6.394 8.63 12.69 1.268 27.498.752 40.261-.69 9.548-1.214 18.009-.207 15.874-11.68-.44-2.777.405-6.517-1.24-8.765-1.013-6.691-.423-13.435 1.762-20.046 1.329-5.566 3.574-17.063 2.643-24.533-.43-3.455-7.482-5.356-8.724-5.524.395-2.601.221-7.145-1.178-8.952 2.57-.359 3.215-1.038 3.75-3.892 1.28-4.622 1.45-9.64 4.617-13.534 5.695.074 11.372-1.372 17.065-1.548l.283-.654a30.004 30.004 0 0 0 9.911-1.804c.709.335 1.616.623 2.014-.45l1.901-5.945c22.13-70.426 46.661-141.023 70.579-210.933 1.396-3.399 3.075-7.012 5.259-10.041.739 42.776 9.7 85.506 10.469 128.26 1.04 29.413.773 58.516 3.539 88.033.712 6.247 1.469 6.04 2.402 5.656.373.059 1.253.246 1.634.326-.623 6.208-1.341 16.285-4.003 22.634-5.885.908-4.831 5.423-3.526 9.166-1.403 1.199-1.204 3.994-.787 5.541-5.537.006-6.744 4.509-6.363 7.351.527 4.752.232 12.148 3.403 16.207 1.868 5.176 4.908 10.061 6.095 15.637.746 4.103.458 10.079 1.178 14.149-1.811.836-1.044 2.148-1.349 4.685-1.567 11.612 3.95 9.638 13.704 10.438 5.847 1.291 50.358 3.86 48.434-3.866.328-3.146-1.135-4.528-1.761-7.626-.282-.822-5.827-10.337-9.135-13.939-11.093-10.423-10.609-24.417-10.258-40.536-.652-4.369-4.013-8.552-8.301-8.082 1.231-4.666-1.051-8.723-5.82-10.072.476-5.283.978-12.461 2.722-17.031l-1.643-1.673 2.199.263.73-1.838.796 2.014c3.775 0 8.034-.837 11.649-1.231.578.033.32-.752.415-1.055 3.415-.707 3.789-2.521 3.185-6.844.795-70.195.45-139.731-.637-210.056 5.336.238 10.54-1.709 15.784-3.006 1.864 1.17 2.391-2.994 2.173-3.893-.295-4.653-.871-9.191-1.389-13.415Z" clip-rule="evenodd" class="colorffffff svgShape"></path><path fill="#000000" fill-rule="evenodd" d="M160.68 151.45c.793.626.71 2.362.788 3.334l.006.064c.249 2.935-.088 5.884-.804 8.733l-.061.238c-.36 1.398-.679 3.146-1.801 4.126-1.216 1.061-3.146.374-3.19-1.337-.022-.795.243-1.561.579-2.307a570.046 570.046 0 0 1-7.073 2.684c-1.51 12.488 15.937 27.778 26.038 33.131 14.711 8.142 27.088-4.329 28.971-18.99.316-1.948.528-3.949.569-5.924.034-1.649-.301-3.951.804-5.362-.783-.018-1.478.092-2.245.212l.037.064c.434.776 1.048 2.709-.327 2.856-2.969-.312-4.35-5.517-5.074-8.014-.471-1.699-1.12-8.753.317-9.584.432 1.676.262 3.495.789 5.175 1.198.483 3.479.613 4.007.702 6.17.072 9.669 4.501 12.17 9.685 7.331 6.017 17.869 4.983 25.786 9.938 24.225 17.559 16.314 85.917 28.38 114.998 2.416-1 4.878 1.002 5.201 3.444.333 1.878.234 3.89.26 5.793l.012.238c.197 3.892.87 8.266-4.387 8.351.008 2.173.417 4.277.942 6.374 2.911 12.697 4.182 25.774 4.468 38.79l.015.956c.094 6.841.178 28.005-3.755 30.509l.183 1.491c.456 3.728.885 7.466 1.124 11.213.378 1.945-.907 6.605-3.527 5.371-4.807 1.189-9.547 2.943-14.541 2.952 1.21 40.256.608 80.553.787 120.825-.386 29.685 1.219 59.617-.184 89.189l.051.417c.397 3.321.516 6.208-3.323 7.345-.055.813-.68 1.247-1.422 1.342a561.43 561.43 0 0 1-6.314.81c-1.962.146-4.061.634-6.016.401.189.191-.325.221-.38.081-1.783 4.474-2.3 9.35-2.742 14.122 4.327 1.649 6.689 5.359 5.983 10.01 4.366.176 7.555 5.027 8.166 9.116.392 2.821.078 5.623-.048 8.449-.605 9.659.815 20.064 7.051 27.768l.26.308c4.01 4.715 9.095 9.036 10.824 15.199.479.224.874.658 1.047 1.335l1.12 4.397.557 2.198c.408 1.603.771 3.242.552 4.902l-.023.16c-1.092 10.51-44.182 5.444-52.591 4.69-3.381-.53-7.09-.241-10.134-2.031-3.734-2.464-4.201-7.463-3.56-11.557l.053-.383c.26-1.831.64-3.75 2.377-4.774-.585-3.793-.359-7.675-1.054-11.453-1.051-5.346-4.229-9.986-5.851-15.118-2.367-2.632-2.447-6.734-2.942-10.099-.375-3.264-.682-6.551-.808-9.835-.343-4.341 1.541-7.922 6.107-8.489-.212-.822.367-1.534.944-2.06-1.361-4.834-1.737-11.471 4.169-13.12 2.236-5.545 2.887-11.555 3.482-17.469-.071-.015-.142-.027-.212-.04-2.942 1.225-3.553-4.578-3.75-6.849-2.784-29.435-2.528-59.043-3.574-88.569l-.102-2.134c-.917-19.454-1.462-39.079-4.827-58.273-3.386-21.393-4.271-43.135-5.429-64.752-1.363 2.118-2.096 4.55-3.2 6.807-14.316 42.056-29.005 83.986-43.158 126.1-10.258 30.491-20.058 61.143-29.888 91.777-.502 1.568-2.082 1.893-3.238 1.391a30.988 30.988 0 0 1-9.143 1.701c-.188.431-.572.746-1.135.684-1.663-.182-3.577.338-5.24.532-3.805.376-7.499.959-11.339 1.014-2.379 3.008-2.529 7.086-3.625 10.665-.632 1.825-.533 5.917-2.713 6.431.782 1.204.884 2.649.757 4.138.678.154 1.366.445 2.004.744.621.314 1.442.287 1.87.92 12.179 2.207 3.279 25.332 1.162 32.98-2.078 6.252-2.728 12.783-1.78 19.311 1.45 2.001.964 4.978 1.186 7.351.116 2.117.33 4.266.311 6.386-.236 8.806-11.108 7.373-17.241 8.516-3.83.445-7.677.756-11.524.997-9.758.606-19.57.653-29.306-.291-6.287-.199-7.64-4.3-7.63-9.909l-.009-.232c-.141-3.807.473-8.404 4.088-10.383.18-2.012 1.2-4.043 2.243-5.801 4.845-8.145 12.119-15.282 13.55-25.057 1.403-6.399-.187-20.485 6.318-23.821.151-2.881 1.921-5.818 4.113-7.376.423-2.4 2.017-4.606 3.002-6.812 2.01-4.211 3.87-8.489 5.87-12.703-1.046-.443-2.16-1.258-2.305-2.415-1.006.012-2-.638-1.877-1.861.355-3.553 1.132-7.046 1.866-10.537l.091-.436c13.06-63.123 40.027-122.15 55.805-184.464-2.123.384-4.108-2.044-5.281-3.624-3.791-5.104-6.03-11.28-7.015-17.546l-1.782-.221c-5.943-.73-11.915-1.368-17.907-1.197l-1.445.049c-1.604.049-3.211.036-4.737-.541-1.064.098-2.172-.473-2.434-1.667-4.439-22.119 6.47-43.109 14.285-63.096 1.84-4.914 3.15-9.899 4.4-14.988.041-.165.3-.13.292.04-.244 5.657-1.646 11.361-3.07 16.814-4.678 18.49-14.423 36.622-12.04 56.198 7.405-5.833 16.201-9.884 25.441-11.598.533-2.317 1.123-4.616 1.566-6.948-.436-3.584-.733-7.186-1.113-10.788a296.223 296.223 0 0 0-5.179-32.103c-3.584-10.649-6.714-21.443-7.833-32.671l-.204.04c-2.485.504-5.223 1.599-7.529.016-1.464-1.014-2.097-2.696-2.688-4.311-1.689-3.915-2.001-9.062 2.778-10.699-1.782-12.449-.624-25.445 1.529-37.778 1.725-10.809 5.507-21.46 4.091-32.526-1.572-10.634-4.503-21.772-.266-32.182 6.964-17.372 24.598-25.614 41.941-28.267l.281-.083c2.145-.635 4.099-1.304 6.334-.823 5.273-9.784 13.825-5.805 22.175-3.624.564-1.659 1.034-3.356 1.475-5.052.276-.864.185-2.857 1.145-3.134Zm48.331 568.97-.021.426c-.221 4.581.028 8.506 5.707 8.476 3.908.417 7.817.823 11.731 1.177l1.469.13c11.617 1.036 23.375 1.543 34.971-.013l.483-.066c.969-.138 2.763-.111 3.53-.827.925-1.244-.145-3.617-.37-5.062-18.093-.21-36.21-.878-54.315-.647-1.904.01-2.763-1.618-2.588-3.1a4.05 4.05 0 0 1-.597-.494Zm-183.697-2.298c-.89 3.129-.67 6.085-.168 9.217.251 3.281 1.811 3.491 4.636 3.568 11.024 1.017 22.128.804 33.155-.049 5.91-.637 11.984-.613 17.785-1.921 2.767-1.226 1.17-5.082 1.263-7.447-13.026 8.395-32.727 7.329-46.932 2.472l-.228-.097c-3.36-1.412-7.655-2.3-9.512-5.743Zm21.577-56.483c-1.558 1.758-1.529 6.896-1.6 8.321-.168 3.44-.14 6.886-.29 10.325.11 14.484-8.254 21.707-14.465 33.352-1.699 2.826.773 3.227 2.783 4.143 13.017 6.058 28.415 6.984 42.014 2.346 6.835-1.986 5.343-6.587 4.763-12.213-.572-11.498 5.478-21.857 7.268-32.98l.065-.39c.535-3.335 1.385-11.514-3.764-9.743-1.132.697-2.196-.177-2.33-1.245a2.806 2.806 0 0 1-.407.036c-.601 3.718-1.224 7.43-1.823 11.148.504.32.976.682 1.395 1.095.509.505.153 1.564-.614 1.5a11.792 11.792 0 0 1-1.171-.168c-.307 3.232-5.44 1.419-3.957-1.172-7.379-2.549-15.508-2.346-23.002-.391l-.031.013c-.58.231-4.751 1.067-3.41 1.718.56.067-.714.799-.937-.333-.072-1.421 3.17-2.118 4.164-2.708-2.506-3.586-4.218-8.233-4.65-12.654Zm189.044-11.354c-6.951-3.764-15.494-2.367-23.034-1.701l-.317.036c-1.918.206-4.593.334-5.473 2.31-1.275 3.166.838 10.25 1.502 13.772l.301 1.231c.523 2.15 1.007 4.289 1.187 6.514.005.074-.066.125-.131.125-2.642-2.821-3.829-6.616-5.062-10.236-.527.3-1.04.625-1.525.982-1.893 6.505-2.526 13.431-1.028 20.067l.054.234c1.852 8.2 7.616 14.907 8.164 23.476.367 3.465.285 7.015 1.281 10.38a1.858 1.858 0 0 1 1.283 1.068l3.25.004c15.707.027 31.419.169 47.116.816-.507-4.414-4.403-8.331-7.146-11.357-8.421-8.623-12.062-21.011-10.675-32.95.73-5.972 4.063-15.356-4.091-17.563-.595 4.868-1.4 9.72-1.845 14.607 1.538.742 1.443 2.699-.436 2.661-.844 2.839-3.673 1.691-3.367-.987-10.348-3.822-16.285-5.103-26.365.655-.283-.042.774-1.173.908-1.374 3.185-3.435 8.078-5.05 12.669-5.108 4.55-.001 8.829 1.714 13.121 3.04.645-4.611 1.08-9.251 1.591-13.879l.111-.991c.268-2.43.17-4.436-2.043-5.832ZM69.642 709.836c1.515-.337 2.907-.849 4.446-.502 5.415 4.068-16.711 5.215-18.595 4.926-4.796-.141-9.594-.75-14.21-2.105l-.355-.105c-.608-.17-5.004-1.411-4.15-1.971 6.244.553 12.355 1.7 18.715 1.401 3.173-.066 6.357-.29 9.496-.768a67.84 67.84 0 0 0 4.653-.876Zm146.288-5.04c-.992-1.486 3.841.487 4.47.505 4.002.987 8.076 1.735 12.187 2.046 2.756.209 5.541.253 8.302.118 2.045-.071 4.068-.373 6.1-.581l.073-.004c1.207-.042 3.626.707 2.135 2.144-2.318 1.798-5.748 1.25-8.527 1.514-8.438-.028-17.373-1.386-24.74-5.742Zm-158.635-10.8c2.433-.441 15.822-.585 14.488 3.525-.324.781-1.064 1.039-1.844.916-8.286-2.016-17.225-3.07-25.485-.29-.134.046-.227-.173-.096-.232 4.062-2.035 8.407-3.458 12.937-3.919Zm173.797-4.018c2.186-.166 4.385-.107 6.572.057l.712.056c.98.076 1.99.166 2.93.452l.176.056c1.201.387 3.907 2.451 1.853 3.444-2.206.714-4.072-.136-6.2-.683-5.932-1.405-12.167-.929-18.045.508l.828.266c.051-.037.117.049.069.091-.595.519-1.41.335-1.832-.31-.073-.111-.026-.288.091-.35 3.983-2.09 8.376-3.247 12.846-3.587Zm-184.756-.524c6.7-2.966 14.461-3.294 21.646-2.434l.512.063c2.241.262 5.164.383 6.447 2.472.443.723-.015 1.553-.73 1.814-2.11.771-4.588-.773-6.614-1.347-5.99-1.64-12.387-1.813-18.478-.679.043.225-.966.127-1.186.207-.275-.016-2.102.588-1.597-.096Zm168.94-4.631c5.845-2.843 12.602-3.521 18.912-2.053l.262.075c2.796.785 7.297 1.711 8.299 4.671.217.667-.253 1.568-.957 1.704-2.384.455-4.548-1.285-6.705-2.122-6.347-2.386-13.532-2.957-20.095-1.202-.044.259-.088.515-.134.773.112-.073.228.091.138.183-1.047.733-2.137-1.119.28-2.029Zm-153.881-4.998c4.729-.314 9.497.287 14.063 1.535l.858.236c1.248.35 2.864.901 3.046 2.25.07.536-.063.906-.5 1.238-1.589 1.189-5.045-1.302-7.021-1.595-7.174-2.156-14.875-2.125-22.142-.476l-.247.057.175 1.248c.172.597-1.425-.81-.818-1.45 3.836-1.954 8.312-2.691 12.586-3.043Zm158.34-2.23c3.796-.685 7.711-.816 11.548-.471l.454.042c2.291.203 9.716.498 7.96 4.372-.295.648-1.15.732-1.703.451-1.855-.94-3.883-1.28-5.931-1.59-7.23-1.007-14.617-.594-21.675 1.354.153.241-.163.526-.463.583-.745.138-.745-.751-.426-1.223.38-.559 1.137-.764 1.721-1.01 2.719-1.185 5.601-1.985 8.515-2.508ZM75.988 656.036l-.432-.103c-7.243-1.704-23.3-4.761-24.963 5.219-.59 4.395 1.356 8.683 1.212 13.035 7.51-3.055 15.816-3.023 23.619-1.004.69-4.518 1.35-9.04 2.057-13.555l.114-.54c.314-1.523.421-2.714-1.607-3.052Zm-16.132 1.817c1.579-1.354 4.21-1.335 5.759.143 1.415.297 2.414 1.8 2.437 3.089 2.152 3.785-.443 9.014-4.553 9.959-9.28 1.956-13.429-10.795-3.643-13.191Zm160.786-6.039c7.764-1.388 10.585 8.466 4.212 12.462-9.002 4.517-15.001-9.685-4.212-12.462ZM63.698 629.928c.114.753-.256 1.289-.699 1.797-1.592 6.528-3.987 12.603-6.35 18.861 7.686-1.275 14.947-.163 21.746 1.925.082-1.91.952-3.889 1.556-5.69a77.462 77.462 0 0 1 4.24-9.965l.206-.402c.59-1.144 1.157-2.341 1.853-3.436-7.522-1.028-15.043-1.953-22.552-3.09Zm151.484-1.391-.2.908c-.864 3.94-1.683 7.918-2.968 11.746l-.017.079c-.197.966-.639 5.439-.918 2.282-.214.475-.443.945-.686 1.408l1.328-.159c7.108-.844 14.553-1.574 21.54.216-.707-5.479.333-10.714 1.853-15.894-6.659-.153-13.259-.104-19.932-.586Zm-126.1 6.81a15.17 15.17 0 0 0-.708.706c.307-.079.614-.155.898-.221-.012-.18-.138-.316-.19-.485Zm150.057-5.025-.145.341-.072.168c.112-.066.237-.13.37-.187a1.65 1.65 0 0 1-.153-.322ZM117.502 306.113c-.682.33-1.393.414-2.333.453-7.636.317-15.248 1.202-22.747 2.711.414 6.068 2.26 11.947 4.016 17.733l.364 1.268c5.935 20.729 11.115 42.391 10.071 64.073.059.022.115.051.168.078-.094.266-.163.538-.258.801l-.061.157-.356.885c-.197.492-.388.985-.554 1.491-.292.105-.65.182-.991.231-1.733 11.479-.086 24.35 7.721 33.327-3.24-6.779-4.484-15.21-3.148-22.613.724.786.776 2.597 1.054 3.772.762 4.018 1.297 8.093 2.442 12.027l.124.394c1.283 4.029 3.431 9.224 7.154 11.304.702.211 1.788-.051 2.12.81.193.769-.165 1.72-.954 1.959l-.056.016c-2.267.642-4.19-1.066-5.644-2.869l-.073.942c-.139 1.781-.334 3.492-1.368 4.957-.122.51-.242 1.022-.365 1.532-2.8 17.282-7.012 35.148-14.68 50.746l-.892 2.69c-14.579 43.929-29.677 87.83-38.464 133.408 9.233-.972 18.542-.502 27.756.414 8.688.902 17.878 3.305 26.201-.532 22.551-68.913 45.814-137.621 71.308-205.484 3.073-10.771 8.844-21.158 11.699-32.201l.179-.583c.671-2.214.986-3.65.494-6.123l-.021-.302c-.102-1.548-.138-3.895 1.628-4.324.299-.074.691-.017.898.241 1.092 1.401.07 3.184.385 4.811.916 6.221-1.538 12.087-4.407 17.452.187.226.316.505.338.81.251 3.306.219 6.647.363 9.961a791.573 791.573 0 0 0 1.756 28.553c2.358 17.41 5.7 34.641 7.516 52.128 4.135 40.73 3.392 81.773 6.394 122.584.024 3.585 1.149 7.311.01 10.791.718-.473 1.739-.367 2.369.204 12.241-.848 24.5-.432 36.737-1.159.013-.552.054-1.066.076-1.463-.343-.814.226-1.719.209-2.585-1.493-8.469-.264-17.571-.572-26.231.015-8.196.056-16.389.112-24.585.463-51.213-.159-102.439.777-153.646.073-2.518.187-5.03.35-7.541-.673-.75-.224-1.813-.223-2.715l.039-.801c.205-4.048.438-7.766-1.14-11.755.036-.475.146-.921.394-1.285-7.381-3.462-15.087-6.084-22.707-8.937-1.286.318-2.895-.482-3.166-1.866-2.87-14.737-5.132-29.567-7.088-44.449-12.794 8.405-28.395 9.734-42.924 13.139l-2.75.713c-6.781 1.768-13.894 3.826-19.052 8.645-.521 7.606 3.352 29.527-8.288 28.954-3.814 1.165-7.734 2.099-11.637 2.602 4.544 8.629 12.833 20.125 6.28 29.681-.951 1.007-2.228-.015-3.097-.64.107 5.586.257 11.144.263 16.726 0 .743-.767 1.415-1.507 1.162-4.198-1.448-4.717-6.475-5.367-10.269-.582-3.387-1.166-6.775-1.741-10.165-.366 6.084 1.097 12.345-.095 18.358-1.144 3.439-4.698 2.415-5.763-.468l-.032-.088c-2.107-5.846-3.133-12.088-3.56-18.28l-.022-.362c-.123-1.879-.323-3.866.142-5.687.942 1.773.708 4.666 1.147 6.81.735 4.583 1.729 9.135 3.126 13.56l.037.156c.631 2.596 3.104 7.653 3.075 1.299.095-3.228-.183-6.446-.358-9.668l-.025-.46c-.228-4.399-.204-8.841 1.116-13.083.336-1.085 2.162-1.29 2.383 0 .887 5.161 1.734 10.326 2.581 15.491.618 3.154.593 6.713 2.469 9.434.022-5.941-.307-11.864-.591-17.797l-.057-.184c-.231-.756-.481-1.766.049-2.421.207-1.354 2.184-1.199 2.352.219.037.296.064.596.093.894.655.822 1.264 1.662 2.038 2.368 5.17-10.562-11.745-28.802-14.081-40.729-6.878-23.227-2.923-47.58-.923-71.233-2.068-.245-4.154-.31-6.235-.342ZM59.584 629.204c-.078.292-.138.613-.28.879.112.02.227.042.341.066.14-.28.285-.554.444-.822a18.477 18.477 0 0 1-.505-.123Zm85.863-108.781c.217-.037.305.264.093.333-7.127 2.37-13.134 6.782-19.141 11.159-.852.621-1.648-.674-1.051-1.376 2.512-2.943 5.588-4.975 9.014-6.685l.202-.1c3.426-1.727 7.102-2.827 10.883-3.331Zm68.247-4.409c-.083-.16.136-.283.236-.141 1.588 2.238 3.689 4.321 5.776 6.079 2.113 1.782 4.419 3.19 6.681 4.754 1.22.842.173 2.636-1.152 1.991-2.576-1.253-4.889-3.323-6.781-5.477-1.95-2.223-3.394-4.602-4.76-7.206Zm-44.249-77.577c-7.866 13.223-19.479 26.539-28.147 40.099-5.853 8.693-11.148 17.759-17.563 26.059-1.283 1.748-3.757.289-2.878-1.701 2.44-5.509 5.16-10.802 8.434-15.852l1.056-1.568c11.404-16.907 23.491-33.847 39.098-47.037Zm32.769-20.18c-.068-.22.255-.318.342-.123l.009.024c5.905 16.2 15.008 30.928 22.973 46.119.616 1.243-1.025 2.743-2.006 1.566-5.622-6.746-9.564-14.68-13.061-22.711-3.686-7.961-5.948-16.439-8.257-24.875Zm13.721-245.822c3.616 7.263 6.27 14.949 8.108 22.859.566 2.442-2.707 3.941-4.029 1.801l-.04-.066c-1.626-2.715-4.049-5.106-7.117-6.041-2.09 8.769-1.071 18.035.015 26.889 1.925 12.335 3.458 24.723 3.687 37.223l.011.67c.671 42.688 6.94 85.185 13.806 126.98 10.977 1.764 21.026 6.742 31.145 11.117 1.758.687 3.554 1.286 5.396 1.699-5.084-47.385-24.418-91.823-30.393-139.035-1.579-12.279-1.653-24.748.529-36.955.036-.234.367-.156.382.051.239 5.015 1.096 9.964 1.604 14.951.346-2.848 1.145-5.733 1.79-8.464.789-2.671 1.081-6.959 3.392-8.7l.146-.505c.061-.216.382-.125.331.091-.024.104-.049.205-.071.308 1.485.395.098 2.158-.27 3.001-2.383 6.399-3.092 13.326-4.719 19.922 2.354 20.59 6.594 40.919 11.814 60.932 4.798-1.267 9.611-2.487 14.42-3.725-10.727-35-4.455-74.061-20.527-107.481-6.021-11.216-20.85-9.692-29.41-17.522Zm-81.5-6.398c-2.25-.121-4.6 1.103-6.76 1.524-2.863.556-5.712.997-8.512 1.851-14.333 3.938-28.16 14.691-30.757 30.183-1.785 10.638 2.634 21.002 2.479 31.611-.466 10.509-3.925 20.611-5.272 31.014-1.621 10.639-2.179 21.775-.789 32.465 12.858-3.655 26.285-3.884 39.47-1.996-1.1-16.204.343-32.487 1.141-48.679.575-10.399 1.559-20.845 1.211-31.264-.008-.231.367-.288.403-.056 3.954 21.279 1.635 42.881 1.236 64.341-.254 5.422.416 10.896.145 16.288 5.994 1.293 5.778 8.298 3.945 12.915-.325 1.111-1.428.918-2.321.783-.967 1.019-3.274-.31-4.589-.31-1.03 26.638-7.284 55.09 5.532 79.987 5.358.03 10.515-1.823 15.722-2.874l.285-.056.007-.003c.765-.998 1.14-2.604 1.242-3.779.728-20.514-1.55-41.075-.217-61.591 1.632-22.772 6.7-45.406 4.356-68.332-1.621-20.491-6.071-40.61-8.216-61.039l-.109-1.057c-.134-1.26-.184-2.652-.806-3.612-3.618 3.304-6.655 7.233-8.828 11.654-1.204 2.136-4.429 1.185-4.478-1.225-.464-4.305-.532-8.626-.063-12.932l.043-.38c.582-5.39 2.207-10.534 4.5-15.431Zm134.523 147.839c-4.66.247-9.326.765-13.996.704l.471 1.767c5.651 21.208 11.669 42.378 15.217 64.078l.129-2.035c.129-2.035.251-4.071.332-6.111 1.006-19.502-.531-38.978-2.153-58.403Zm-13.635.02-.552-.028.034.121c.113-.023.229-.044.345-.064l.173-.029Zm15.189-14.324c-.087-.027-.236-.027-.401-.02-.239.552-.721 1.007-1.281 1.157l-4.672 1.266c-3.894 1.054-7.79 2.103-11.691 3.124.655 2.531 1.32 5.061 1.992 7.59 5.32-1.722 11.211-1.332 16.635-2.44-.066-2.921-.225-5.858-.275-8.784-.012-.478.085-1.246-.158-1.674-.153-.273 0-.172-.149-.219Zm-178.715 9.833-.146.032c.049.133.092.266.134.401.002-.145.005-.288.012-.433Zm34.636-14.057c-10.024-1.466-20.217-2.333-30.327-1.335-4.572.622-9.214 1.286-13.696 2.135-1.558 2.405.166 8.257 2.106 10.108.582.222 1.583-.209 2.14-.335a154.377 154.377 0 0 1 12.655-2.311.6.6 0 0 0 .54.241l.976-.091c5.856-.536 11.763-.929 17.632-.593l.043.034c3.96.29 7.905.918 11.849 1.371 1.556-4.091 1.288-8.786-3.918-9.224Zm72.932-133.442c.387 1.318.853 2.6 1.432 3.845.604-.168 1.437-.033 1.882.35l.189-.035c.519-.099 1.143-.25 1.306-.268 7.162-.997 6.616 8.637 6.642 13.479.044 2.427.093 4.857.166 7.285 2.049-.702 4.79.559 6.581 1.676a155.152 155.152 0 0 0-4.889-13.85l-.418-1.062c-1.431-3.602-3.032-7.231-6.059-9.739-2.339-.615-4.606-.727-6.832-1.681Zm-51.926-2.417c-6.657-2.387-9.294 3.038-11.14 8.449-2.177 5.992-2.771 12.59-2.408 19.037l.224-.298c2.449-3.283 5.98-8.702 10.446-7.831-.044-2.491.046-5.227.521-7.814-.278-1.669-.349-3.355-.156-5.042.102-2.114 2.392-1.794 3.9-2.092 1.306-.874 2.886-1.226 4.473-.611 1.198-.16 2.396-.313 3.594-.465.184-.406.333-.815.487-1.231-3.315-.689-6.63-1.4-9.941-2.102Z" clip-rule="evenodd" class="color000000 svgShape"></path><path fill="#ffffff" fill-rule="evenodd" d="M227.518 106.667c-.901-14.742-5.694-31.457-19.802-38.695-31.101-12.457-71.993 18.913-74.158 50.96-.755 10.969 5.348 22.956 16.501 26.006 2.48 3.279 6.229 5.281 9.931 7.019 44.084 22.825 72.561 4.271 67.528-45.29Z" clip-rule="evenodd" class="colorffffff svgShape"></path><path fill="#000000" fill-rule="evenodd" d="M237.561 97.496a341.188 341.188 0 0 0-4.935-12.855c-1.686-4.138-3.21-8.366-5.303-12.308-12.507-23.544-35.249-23.544-47.004-20.468-6.097-2.621-17.515-1.882-23.863.483-10.277 3.83-22.804 18.894-27.087 25.662-9.457 14.943-15.359 34.832-9.077 52.1.821 2.257 1.868 4.347 3.047 6.361-.743 1.005-1.597 1.956-2.544 2.891-2.814 2.778-5.628 5.465-8.059 8.598-2.415 3.114-4.418 6.426-5.908 10.077-2.811 6.886-2.947 14.682.77 21.252 3.233 5.717 8.96 9.974 15.413 10.38.332.046.663.088.997.122a18.588 18.588 0 0 0 3.087 3.827c3.645 3.461 12.335 5.236 17.291 5.35.255.203.511.407.768.609 3.032 2.382 6.215 4.785 9.696 6.48 2.359 1.149 5.451 2.109 7.911 1.279 1.116.745 2.947.588 4.054-.021 1.819-1 3.299-2.801 4.199-4.645 2.182-4.477 1.657-9.376 1.097-14.159-.617-5.283-1.211-10.569-1.814-15.851-.473-4.132-.967-8.331-2.226-12.311-.65-2.062-1.503-4.043-2.605-5.906a.965.965 0 0 0-.021-.46c-.361-1.171-1.107-1.785-1.99-2.581a14.145 14.145 0 0 1-.34-.313 10.73 10.73 0 0 0-1.42-1.365c-.195-.197-.387-.396-.58-.595-1.598-1.671-3.109-3.427-4.45-5.309-1.302-1.825-2.477-3.73-3.596-5.671-1.137-1.975-1.89-4.153-3.026-6.113a.312.312 0 0 0-.482-.062c-.351.363-.577.766-.534 1.19l-.176.026c-.066-.64-.658-1.161-1.46-1.021-1.202.208-2.19.287-3.23-.112.183-1.211.351-2.424.518-3.64.304-2.238.586-4.482.828-6.726a9.72 9.72 0 0 1 1.739.597 8.392 8.392 0 0 1 2.235 1.45c.646.593 1.092 1.392 1.881 1.804.907.472 2.002-.308 1.736-1.332-.54-2.069-3.591-3.254-5.479-3.645a8.778 8.778 0 0 0-1.974-.178 153.286 153.286 0 0 0 .537-6.376 10.812 10.812 0 0 1 4.567-.367c.503.401 1.007.796 1.494 1.197a297.659 297.659 0 0 1 5.015 4.214c.903.775 2.029.007 1.877-1.09-1.24-8.992 4.279-16.145 10.741-21.687 7.153-6.136 20.158-6.85 28.665-17.48 3.918.797 12.666 3.16 16.275 8.9 5.054 8.045 4.394 15.252 4.779 24.377.384 9.132 1.363 18.657-.715 27.661-1.917 8.303-7.106 15.397-15.157 18.658-.199.08-.401.159-.603.235-4.163 1.566-8.706 2.009-13.086 1.185-4.847-.915-8.894-3.129-12.926-5.852-.233-.154-.573.163-.397.396 5.315 7.029 15.755 9.378 24.036 7.522.388-.087.772-.182 1.155-.286-1.853 5.316-1.48 11.151.933 16.327 1.451 3.114 3.664 5.809 6.36 7.935 2.971 2.342 6.657 4.233 8.718 7.521 1.888 3.012 1.328 6.396-1.904 8.136-.815.441-1.129 1.865-.321 2.491.309.237.617.479.933.716 1.81 1.363 6.781 3.922 7.586 4.017 7.148.846 11.955-4.392 15.035-10.57 3.617-7.253 2.677-16.091-1.308-22.998-3.197-5.541-9.493-11.002-6.99-18.015.893-2.505 2.719-4.64 4.494-6.57 2.023-2.197 4.198-4.254 6.139-6.529 1.928-2.259 3.638-4.717 4.593-7.551 1.394-4.143.7-8.623-.347-12.759-2.244-8.878-5.158-17.638-8.262-26.249Z" clip-rule="evenodd" class="color000000 svgShape"></path><path fill="#000000" fill-rule="evenodd" d="M184.875 130.943c4.071-.493 8.018.75 11.997 1.377 2.102.331 4.206.578 6.332.67.428.019.856.03 1.284.038.04-.376.25-.721.707-.928.937-.423 1.686-.614 2.715-.574.941.038 1.886.134 2.812.303 1.683.308 3.374 1.007 4.605 2.221 2.849 2.81 2.416 7.322.214 10.382-4.548 6.323-12.85 6.616-19.96 6.534l-.656-.009c-6.474-.092-15.736.871-18.677-6.48-1.081-2.703-.931-5.836.393-8.428 1.58-3.092 4.904-4.703 8.234-5.106Zm20.222 10.527-.058.003c-2.985.114-5.969.195-8.955.248a111.416 111.416 0 0 0 .545 4.095c.039.254.181.648.141.9l-.015.099c.153.07.293.181.396.343.036.056.062.112.088.168 2.319.019 4.814-.026 7.178-.447l.004-.051c.043-.301.169-.504.336-.643.166-.961.151-1.985.215-2.939.04-.592.083-1.184.125-1.776Zm-11.294.291c-2.151.037-4.304.065-6.455.039l-.976-.015c.206 1.104.431 2.204.617 3.315.195 1.159-.827 1.895-1.711 1.865.099.017.198.033.297.047 2.763.39 5.631.287 8.435.284-.151-.879-.09-1.87-.113-2.603l-.004-.114c-.043-.94-.073-1.879-.09-2.818Zm-14.613-.202c.074.574.22 1.136.437 1.659.918 2.21 3.024 3.241 5.251 3.675-.386-.133-.693-.453-.771-1.001-.193-1.363-.262-2.748-.267-4.132-1.553-.015-3.116-.048-4.65-.201Zm34.003-.472c-1.105.26-2.39.141-3.474.19-1.016.046-2.032.086-3.048.127.048.693.094 1.384.145 2.076.065.894.072 1.839.243 2.729 2.045-.696 3.877-1.813 5.251-3.599.343-.445.649-.967.883-1.523Zm-28.785-6.518c-1.84.434-3.581 1.353-4.517 3.033-.555.997-.8 2.179-.753 3.343 1.555-.18 3.137-.249 4.711-.306.006-.282.012-.565.021-.847l.024-.723c.043-1.378.065-3.109.514-4.5Zm9.524.168-.81-.091c-2.25-.256-4.499-.524-6.748-.37-.326.022-.657.057-.988.106.398 1.432.364 3.114.53 4.531.065.549.146 1.092.236 1.634l.39-.019c2.414-.13 4.83-.21 7.246-.306 0-.453.003-.906.01-1.359l.009-.453c.027-1.157-.048-2.461.125-3.673Zm11.297-.184c-2.356.379-4.791.46-7.106.463a30.988 30.988 0 0 1-2.772-.137c.06.491.092.987.137 1.471.091.978.195 1.954.309 2.93l.101.853c2.969-.134 5.939-.279 8.908-.43l.419-.022.117-1.641c.08-1.093.168-2.187.292-3.276l-.093-.033a1.54 1.54 0 0 1-.312-.178Zm1.023.407c.13 1.547.202 3.1.298 4.649l1.957-.104.978-.055c1.269-.073 2.898-.456 4.152-.099.096-1.137-.23-2.246-1.259-3.01-1.806-1.342-4.105-.864-6.126-1.381Zm-6.686-13.826c2.914-1.665 10.227-3.368 10.69 1.867.213 2.408-1.582 4.404-3.677 5.295l-.079.033c-1.965.806-5.448 1.717-7.149-.032-1.415-1.455.462-4.064 2.221-2.872.904.612 2.806.161 3.815-.13l.063-.019c1.088-.319 2.54-1.341 2.089-2.678-.398-1.183-2.093-1.4-3.154-1.438-1.584-.057-3.126.311-4.696.43-.248.019-.325-.34-.123-.456Zm12.072-8.416c3.955-.185 6.416 4.125 5.506 7.657-.157.609-.84 1.207-1.499 1.139l-.166-.015a1.498 1.498 0 0 1-.247-.041c-.626-.173-1.188-.823-1.142-1.496l.012-.196c.092-1.669-.089-3.591-2.076-3.995-1.685-.343-2.625 1.276-2.645 2.766-.004.264-.302.449-.536.307-1.218-.74-1.429-2.212-.964-3.479.59-1.606 2.065-2.568 3.757-2.647Zm-29.354.924c2.878-.958 5.984.573 7.378 3.113.489.141.977.517.909 1.093-.098.829-.246 1.351-.821 1.979-.901.983-2.587.481-2.961-.729l-.016-.055c-.425-1.564-2.15-2.596-3.722-2.048-1.836.639-1.782 2.574-3.07 3.701a.443.443 0 0 1-.514.066c-1.368-.659-1.122-2.644-.635-3.781.64-1.491 1.883-2.817 3.452-3.339Zm-3.921-8.724c2.333-2.375 8.415-4.673 10.011-.287.304.835-.343 1.962-1.215 2.135-1.427.284-2.693-.335-4.111-.224-1.148.09-2.345.473-3.263 1.183-2.541 1.965-3.1 5.289-4.871 7.791-.086.121-.254.07-.27-.073-.403-3.642 1.164-7.923 3.719-10.525Zm30.421-2.338c1.548-.546 3.301-.499 4.857-.015a9.435 9.435 0 0 1 4.115 2.624c.503.55.969 1.156 1.342 1.801.198.342.407 1.049.632 1.47 1.22.702 1.741 2.303.649 3.442l-.049.05-.146.145c-.587.579-1.472.831-2.273.599-1.793-.518-2.01-1.927-2.631-3.422a6.125 6.125 0 0 0-1.963-2.504c-2.013-1.517-5.312-2-7.735-1.285-.129.038-.28-.126-.188-.245.459-.594.723-1.081 1.338-1.56a7.192 7.192 0 0 1 2.052-1.1Z" clip-rule="evenodd" class="color000000 svgShape"></path><path fill="#000000" fill-rule="evenodd" d="M223.298 123.083c-1.599 2.144-4.563 2.827-7.297 2.591-5.898-.566-7.754-7.25-7.947-12.445 3.955 1.11-.334-6.753 13.183-7.617 4.766-.396 3.452 2.476 5.557 4.574-.043 4.404-.778 9.19-3.496 12.897m-28.088-5.06c-3.482 16.271-22.547 12.401-24.549-2.267 1.849-1.302 1.362-4.519 3.659-5.684 3.641-2.322 8.193-2.223 12.328-2.168 5.285.362 6.792 2.547 9.507 4.931-.131 1.592-.508 3.48-.945 5.188m35.64-15.106a39.575 39.575 0 0 0-.586-.092 1.777 1.777 0 0 0-.541-.193 9.356 9.356 0 0 0-1.421-.246c-6.776-1.521-22.452.639-23.099 6.41-2.158.719-4.025.075-6.526.139-1.904-7.941-34.816-6.82-36.398-2.032l-.019-.005c-1.52-.47-3.763-.357-5.503-.431a47.907 47.907 0 0 0-11.075 1.035c-6.81 1.08-16.104 2.344-11.368 10.831l.003.005v-.001c.817.835 2.202.163 2.254-.968-1.593-4.02 2.004-4.503 4.771-5.658 6.885-2.469 13.896-2.811 21.017-2.048.536.63 1.349 1.179 2.208 1.466 4.761.789 2.252 4.314 5.262 4.826-.553 12.287 14.395 18.994 23.056 10.917 3.458-3.374 4.282-8.372 5.084-12.878.424-.095.693-.326.851-.632 1.019-1.016 1.66-1.954 3.676-2.233 2.016-.279 3.568.281 3.778.452.053.107.11.213.176.32.092.159.217.286.36.386-1.991 12.235 7.527 19.973 17.135 13.627 4.175-3.92 5.058-9.92 5.232-15.276.566-.341.924-1.001.728-1.832-.27-1.145.363-2.136 1.372-2.634 1.31-.646 1.078-3.006-.427-3.255" clip-rule="evenodd" class="color000000 svgShape"></path></svg>